<svg width="169" height="80" viewBox="0 0 169 80" fill="none" xmlns="http://www.w3.org/2000/svg">
<g clip-path="url(#clip0_3346_583)">
<path d="M0.700499 23.7131C0.700499 23.7131 24.9266 32.2206 33.438 0C33.438 0 32.8367 45.3319 0 65.8415C0 65.8415 25.8317 44.229 0.700499 23.7131Z" fill="#E36B0C"/>
<path d="M39.8416 14.6107C39.8416 14.6107 31.5348 54.6386 0 66.4425C0 66.4425 32.4585 60.6861 46.8528 25.0142L39.8478 14.6045L39.8416 14.6107Z" fill="#F59A0E"/>
<path d="M50.8575 32.9209L55.4634 44.6256C55.4634 44.6256 36.5127 69.3488 0 66.8702C0 66.8702 31.6836 65.693 50.8575 32.9209Z" fill="#0D83B5"/>
<path d="M56.3649 67.0436V54.7378C56.3649 54.7378 36.7447 73.6488 0.703125 67.5455C0.703125 67.5455 26.8324 83.1539 56.3649 67.0436Z" fill="#3B9740"/>
<path d="M65.9789 2.55273H65.1172V80.0061H65.9789V2.55273Z" fill="white"/>
<path d="M15.3663 18.0128C18.6838 18.0128 21.3732 15.3246 21.3732 12.0086C21.3732 8.69256 18.6838 6.00439 15.3663 6.00439C12.0488 6.00439 9.35938 8.69256 9.35938 12.0086C9.35938 15.3246 12.0488 18.0128 15.3663 18.0128Z" fill="#3B9740"/>
<path d="M74.8208 24.9027C75.4531 25.9747 76.2775 26.5138 77.288 26.5138C77.8087 26.5138 78.2179 26.396 78.5154 26.1606C78.813 25.9251 78.9618 25.6153 78.9618 25.2187C78.9618 24.8718 78.8626 24.6053 78.6704 24.4194C78.4782 24.2335 78.1001 24.0538 77.5422 23.868L76.1474 23.4156C74.5604 22.8951 73.7607 21.9285 73.7607 20.5282C73.7607 19.6731 74.0707 18.9915 74.6968 18.4648C75.3167 17.9443 76.1412 17.6841 77.164 17.6841C78.8254 17.6841 79.9784 18.3595 80.6231 19.7165L79.1849 20.5839C78.9122 20.1006 78.6332 19.7598 78.3418 19.5616C78.0505 19.3633 77.6723 19.2641 77.2198 19.2641C76.7673 19.2641 76.3891 19.3695 76.1164 19.5739C75.8436 19.7784 75.7134 20.0634 75.7134 20.4166C75.7134 21.061 76.1598 21.5258 77.0524 21.817L78.2675 22.2012C79.2221 22.4924 79.904 22.8704 80.3132 23.3289C80.7161 23.7874 80.9207 24.3946 80.9207 25.1568C80.9207 26.0552 80.5921 26.7678 79.935 27.2945C79.2779 27.8212 78.3976 28.0876 77.2942 28.0876C76.3643 28.0876 75.5646 27.8893 74.8889 27.4928C74.2132 27.0962 73.6987 26.52 73.3516 25.7702L74.8269 24.9027H74.8208Z" fill="white"/>
<path d="M83.5066 17.7832L85.8933 25.6463L88.4473 17.7832H90.2885L92.7557 25.702L95.223 17.7832H97.1323L93.853 27.9947H91.7329L89.3214 20.5715L86.8542 27.9947H84.7217L81.4609 17.7832H83.5128H83.5066Z" fill="white"/>
<path d="M96.1797 27.9947L100.389 17.7832H102.366L106.607 27.9947H104.53L103.65 25.6711H99.0933L98.213 27.9947H96.1797ZM103.055 24.1158L101.368 19.6607L99.6822 24.1158H103.055Z" fill="white"/>
<path d="M108.857 24.9027C109.489 25.9747 110.313 26.5138 111.324 26.5138C111.845 26.5138 112.254 26.396 112.551 26.1606C112.849 25.9251 112.998 25.6153 112.998 25.2187C112.998 24.8718 112.898 24.6053 112.706 24.4194C112.514 24.2335 112.136 24.0538 111.578 23.868L110.183 23.4156C108.596 22.8951 107.797 21.9285 107.797 20.5282C107.797 19.6731 108.106 18.9915 108.733 18.4648C109.353 17.9443 110.177 17.6841 111.2 17.6841C112.861 17.6841 114.014 18.3595 114.659 19.7165L113.221 20.5839C112.954 20.1006 112.669 19.7598 112.378 19.5616C112.086 19.3633 111.708 19.2641 111.256 19.2641C110.803 19.2641 110.425 19.3695 110.152 19.5739C109.886 19.7784 109.749 20.0634 109.749 20.4166C109.749 21.061 110.196 21.5258 111.088 21.817L112.303 22.2012C113.258 22.4924 113.94 22.8704 114.343 23.3289C114.746 23.7874 114.95 24.3946 114.95 25.1568C114.95 26.0552 114.622 26.7678 113.965 27.2945C113.308 27.8212 112.427 28.0876 111.324 28.0876C110.394 28.0876 109.594 27.8893 108.919 27.4928C108.243 27.0962 107.728 26.52 107.375 25.7702L108.85 24.9027H108.857Z" fill="white"/>
<path d="M115.881 17.7832H124.343V19.419H121.107V27.9947H119.111V19.419H115.875V17.7832H115.881Z" fill="white"/>
<path d="M125.906 27.9947V17.7832H127.884V22.0276H132.651V17.7832H134.647V27.9947H132.651V23.7068H127.884V27.9947H125.906Z" fill="white"/>
<path d="M73.7812 36.2358H78.133C79.3604 36.2358 80.2903 36.4589 80.9226 36.9112C81.5549 37.3636 81.8711 38.0204 81.8711 38.8878C81.8711 40.0527 81.3938 40.8087 80.4329 41.1557C81.0528 41.3416 81.5363 41.6452 81.8773 42.0789C82.2182 42.5127 82.3856 43.0393 82.3856 43.6714C82.3856 45.524 81.0652 46.4473 78.4244 46.4473H73.7812V36.2358ZM75.7588 37.7601V40.5608H78.0028C79.2489 40.5608 79.8688 40.0961 79.8688 39.1605C79.8688 38.2248 79.2489 37.7601 78.0028 37.7601H75.7588ZM78.4182 44.923C79.0939 44.923 79.5898 44.8053 79.906 44.5698C80.2159 44.3344 80.3709 43.9688 80.3709 43.4607C80.3709 42.9526 80.2097 42.6056 79.8998 42.3763C79.5836 42.1471 79.0877 42.0355 78.4058 42.0355H75.7588V44.923H78.4244H78.4182Z" fill="white"/>
<path d="M84.0859 46.4473V36.2358H86.0635V40.4803H90.8306V36.2358H92.8267V46.4473H90.8306V42.1595H86.0635V46.4473H84.0859Z" fill="white"/>
<path d="M94.1641 46.4473L98.3733 36.2358H100.351L104.591 46.4473H102.514L101.634 44.1237H97.0776L96.1974 46.4473H94.1641ZM101.033 42.5746L99.3465 38.1195L97.6604 42.5746H101.033Z" fill="white"/>
<path d="M109.614 36.2358C110.996 36.2358 112.062 36.5209 112.8 37.0971C113.538 37.6734 113.91 38.4851 113.91 39.5508C113.91 41.1371 113.104 42.1533 111.486 42.5994L114.343 46.4473H112.056L109.502 42.8349H107.915V46.4473H105.938V36.2358H109.62H109.614ZM109.527 41.199C111.108 41.199 111.895 40.6476 111.895 39.5508C111.895 38.9808 111.703 38.5594 111.318 38.2868C110.934 38.0142 110.333 37.8717 109.527 37.8717H107.909V41.199H109.527Z" fill="white"/>
<path d="M115.047 46.4473L119.256 36.2358H121.234L125.474 46.4473H123.397L122.517 44.1237H117.96L117.08 46.4473H115.047ZM121.922 42.5746L120.236 38.1195L118.549 42.5746H121.922Z" fill="white"/>
<path d="M124.639 36.2358H133.101V37.8717H129.865V46.4473H127.869V37.8717H124.633V36.2358H124.639Z" fill="white"/>
<path d="M73.7812 64.8994V54.688H75.7588V58.9324H80.5259V54.688H82.522V64.8994H80.5259V60.6116H75.7588V64.8994H73.7812Z" fill="white"/>
<path d="M84.5859 54.688H91.7087V56.3114H86.5635V58.9944H91.4979V60.5744H86.5635V63.2822H91.9195V64.9056H84.5859V54.6942V54.688Z" fill="white"/>
<path d="M92.7812 64.8994L96.9904 54.688H98.968L103.208 64.8994H101.131L100.251 62.5758H95.6948L94.8146 64.8994H92.7812ZM99.6561 61.0268L97.9699 56.5717L96.2837 61.0268H99.6561Z" fill="white"/>
<path d="M104.406 64.8994V54.688H106.384V63.2636H111.182V64.8994H104.406Z" fill="white"/>
<path d="M110.069 54.688H118.53V56.3238H115.295V64.8994H113.298V56.3238H110.062V54.688H110.069Z" fill="white"/>
<path d="M119.953 64.8994V54.688H121.931V58.9324H126.698V54.688H128.694V64.8994H126.698V60.6116H121.931V64.8994H119.953Z" fill="white"/>
<path d="M131.693 56.0326C132.678 55.0722 133.961 54.5889 135.542 54.5889C137.278 54.5889 138.617 55.1527 139.559 56.2804L138.276 57.4887C137.582 56.7018 136.701 56.3052 135.641 56.3052C134.581 56.3052 133.794 56.6274 133.162 57.2657C132.529 57.9101 132.213 58.7528 132.213 59.7937C132.213 60.8347 132.529 61.665 133.156 62.3032C133.782 62.9414 134.6 63.2574 135.617 63.2574C136.683 63.2574 137.582 62.8733 138.307 62.1049L139.559 63.3008C138.623 64.4285 137.266 64.9924 135.505 64.9924C133.943 64.9924 132.672 64.5091 131.686 63.5425C130.701 62.5759 130.211 61.3242 130.211 59.7999C130.211 58.2756 130.707 57.0054 131.705 56.0326H131.693Z" fill="white"/>
<path d="M140.195 64.8994L144.405 54.688H146.382L150.622 64.8994H148.546L147.665 62.5758H143.109L142.229 64.8994H140.195ZM147.07 61.0268L145.384 56.5717L143.698 61.0268H147.07Z" fill="white"/>
<path d="M155.512 54.688C156.894 54.688 157.961 54.973 158.698 55.5493C159.436 56.1255 159.808 56.9372 159.808 58.003C159.808 59.5892 159.002 60.6054 157.384 61.0516L160.242 64.8994H157.954L155.4 61.287H153.813V64.8994H151.836V54.688H155.518H155.512ZM155.425 59.6512C157.006 59.6512 157.793 59.0997 157.793 58.003C157.793 57.4329 157.601 57.0116 157.217 56.739C156.832 56.4663 156.231 56.3238 155.425 56.3238H153.807V59.6512H155.425Z" fill="white"/>
<path d="M161.672 54.688H168.795V56.3114H163.649V58.9944H168.584V60.5744H163.649V63.2822H169.005V64.9056H161.672V54.6942V54.688Z" fill="white"/>
</g>
<defs>
<clipPath id="clip0_3346_583">
<rect width="169" height="80" fill="white"/>
</clipPath>
</defs>
</svg>
