<svg width="193" height="80" viewBox="0 0 193 80" fill="none" xmlns="http://www.w3.org/2000/svg">
<path d="M0.700499 23.7131C0.700499 23.7131 24.9266 32.2206 33.438 0C33.438 0 32.8367 45.3319 0 65.8415C0 65.8415 25.8317 44.229 0.700499 23.7131Z" fill="#E36B0C"/>
<path d="M39.8416 14.6107C39.8416 14.6107 31.5348 54.6386 0 66.4425C0 66.4425 32.4585 60.6861 46.8528 25.0142L39.8478 14.6045L39.8416 14.6107Z" fill="#F59A0E"/>
<path d="M50.8575 32.9209L55.4634 44.6256C55.4634 44.6256 36.5127 69.3488 0 66.8702C0 66.8702 31.6836 65.693 50.8575 32.9209Z" fill="#0D83B5"/>
<path d="M56.3649 67.0436V54.7378C56.3649 54.7378 36.7447 73.6488 0.703125 67.5455C0.703125 67.5455 26.8324 83.1539 56.3649 67.0436Z" fill="#3B9740"/>
<path d="M65.9789 2.55273H65.1172V80.0061H65.9789V2.55273Z" fill="white"/>
<path d="M15.3663 18.0128C18.6838 18.0128 21.3732 15.3246 21.3732 12.0086C21.3732 8.69256 18.6838 6.00439 15.3663 6.00439C12.0488 6.00439 9.35938 8.69256 9.35938 12.0086C9.35938 15.3246 12.0488 18.0128 15.3663 18.0128Z" fill="#3B9740"/>
<path d="M75.1893 23.7799C75.9802 25.1208 77.0115 25.7951 78.2754 25.7951C78.9268 25.7951 79.4386 25.6478 79.8108 25.3533C80.1829 25.0588 80.369 24.6712 80.369 24.1752C80.369 23.7412 80.245 23.4079 80.0046 23.1754C79.7642 22.9428 79.2912 22.7181 78.5934 22.4856L76.8487 21.9198C74.8636 21.2687 73.8633 20.0596 73.8633 18.308C73.8633 17.2384 74.251 16.3859 75.0342 15.7271C75.8096 15.076 76.8409 14.7505 78.1204 14.7505C80.1985 14.7505 81.6407 15.5953 82.4472 17.2927L80.6482 18.3778C80.307 17.7732 79.9581 17.3469 79.5936 17.0989C79.2292 16.8509 78.7562 16.7269 78.1901 16.7269C77.6241 16.7269 77.1511 16.8586 76.8099 17.1144C76.4687 17.3702 76.3059 17.7267 76.3059 18.1685C76.3059 18.9746 76.8642 19.5558 77.9808 19.9201L79.5006 20.4007C80.6947 20.7649 81.5477 21.2377 82.0594 21.8113C82.5635 22.3848 82.8193 23.1444 82.8193 24.0977C82.8193 25.2215 82.4084 26.1128 81.5864 26.7716C80.7645 27.4304 79.6634 27.7637 78.2832 27.7637C77.1201 27.7637 76.1198 27.5157 75.2746 27.0196C74.4294 26.5236 73.7858 25.8028 73.3516 24.865L75.197 23.7799H75.1893Z" fill="white"/>
<path d="M86.0511 14.8745L89.0364 24.71L92.2311 14.8745H94.5341L97.6202 24.7797L100.706 14.8745H103.095L98.9927 27.6475H96.3408L93.3244 18.3623L90.2383 27.6475H87.5709L83.4922 14.8745H86.0588H86.0511Z" fill="white"/>
<path d="M101.906 27.6475L107.171 14.8745H109.645L114.949 27.6475H112.351L111.25 24.741H105.551L104.45 27.6475H101.906ZM110.506 22.7956L108.396 17.2229L106.287 22.7956H110.506Z" fill="white"/>
<path d="M117.759 23.7799C118.55 25.1208 119.582 25.7951 120.846 25.7951C121.497 25.7951 122.009 25.6478 122.381 25.3533C122.753 25.0588 122.939 24.6712 122.939 24.1752C122.939 23.7412 122.815 23.4079 122.575 23.1754C122.334 22.9428 121.861 22.7181 121.164 22.4856L119.419 21.9198C117.434 21.2687 116.434 20.0596 116.434 18.308C116.434 17.2384 116.821 16.3859 117.604 15.7271C118.38 15.076 119.411 14.7505 120.691 14.7505C122.769 14.7505 124.211 15.5953 125.017 17.2927L123.218 18.3778C122.885 17.7732 122.528 17.3469 122.164 17.0989C121.799 16.8509 121.326 16.7269 120.76 16.7269C120.194 16.7269 119.721 16.8586 119.38 17.1144C119.047 17.3702 118.876 17.7267 118.876 18.1685C118.876 18.9746 119.434 19.5558 120.551 19.9201L122.071 20.4007C123.265 20.7649 124.118 21.2377 124.622 21.8113C125.126 22.3848 125.382 23.1444 125.382 24.0977C125.382 25.2215 124.971 26.1128 124.149 26.7716C123.327 27.4304 122.226 27.7637 120.846 27.7637C119.683 27.7637 118.682 27.5157 117.837 27.0196C116.992 26.5236 116.348 25.8028 115.906 24.865L117.752 23.7799H117.759Z" fill="white"/>
<path d="M126.547 14.8745H137.131V16.9207H133.084V27.6475H130.587V16.9207H126.539V14.8745H126.547Z" fill="white"/>
<path d="M139.086 27.6475V14.8745H141.559V20.1837H147.522V14.8745H150.019V27.6475H147.522V22.2841H141.559V27.6475H139.086Z" fill="white"/>
<path d="M73.8906 36H79.334C80.8693 36 82.0325 36.279 82.8234 36.8448C83.6143 37.4106 84.0098 38.2322 84.0098 39.3172C84.0098 40.7744 83.4127 41.7199 82.2108 42.154C82.9862 42.3865 83.591 42.7663 84.0175 43.3088C84.444 43.8513 84.6533 44.5101 84.6533 45.3007C84.6533 47.6181 83.0017 48.7729 79.6985 48.7729H73.8906V36ZM76.3642 37.9066V41.4099H79.1712C80.7298 41.4099 81.5052 40.8286 81.5052 39.6583C81.5052 38.4879 80.7298 37.9066 79.1712 37.9066H76.3642ZM79.6907 46.8663C80.5359 46.8663 81.1562 46.719 81.5517 46.4245C81.9394 46.13 82.1333 45.6727 82.1333 45.0372C82.1333 44.4016 81.9317 43.9676 81.5439 43.6808C81.1485 43.394 80.5282 43.2545 79.6752 43.2545H76.3642V46.8663H79.6985H79.6907Z" fill="white"/>
<path d="M86.7812 48.7729V36H89.2548V41.3091H95.2177V36H97.7146V48.7729H95.2177V43.4096H89.2548V48.7729H86.7812Z" fill="white"/>
<path d="M99.3828 48.7729L104.648 36H107.121L112.425 48.7729H109.828L108.727 45.8665H103.027L101.926 48.7729H99.3828ZM107.974 43.9288L105.865 38.3562L103.756 43.9288H107.974Z" fill="white"/>
<path d="M118.708 36C120.437 36 121.77 36.3565 122.693 37.0773C123.616 37.7981 124.081 38.8135 124.081 40.1466C124.081 42.1307 123.073 43.4018 121.049 43.9598L124.624 48.7729H121.763L118.568 44.2544H116.583V48.7729H114.109V36H118.715H118.708ZM118.599 42.2082C120.576 42.2082 121.561 41.5184 121.561 40.1466C121.561 39.4335 121.321 38.9065 120.84 38.5654C120.359 38.2244 119.607 38.0462 118.599 38.0462H116.575V42.2082H118.599Z" fill="white"/>
<path d="M125.508 48.7729L130.773 36H133.246L138.55 48.7729H135.953L134.852 45.8665H129.152L128.051 48.7729H125.508ZM134.107 43.9288L131.998 38.3562L129.889 43.9288H134.107Z" fill="white"/>
<path d="M137.508 36H148.092V38.0462H144.044V48.7729H141.548V38.0462H137.5V36H137.508Z" fill="white"/>
<path d="M73.8906 69.897V57.124H76.3642V62.4332H82.3271V57.124H84.8239V69.897H82.3271V64.5336H76.3642V69.897H73.8906Z" fill="white"/>
<path d="M87.4062 57.124H96.3157V59.1547H89.8798V62.5107H96.0521V64.4871H89.8798V67.8741H96.5794V69.9047H87.4062V57.1318V57.124Z" fill="white"/>
<path d="M97.6562 69.897L102.921 57.124H105.395L110.699 69.897H108.101L107 66.9905H101.301L100.2 69.897H97.6562ZM106.256 65.0529L104.146 59.4802L102.037 65.0529H106.256Z" fill="white"/>
<path d="M112.195 69.897V57.124H114.669V67.8508H120.671V69.897H112.195Z" fill="white"/>
<path d="M119.281 57.124H129.866V59.1702H125.818V69.897H123.321V59.1702H119.273V57.124H119.281Z" fill="white"/>
<path d="M131.641 69.897V57.124H134.114V62.4332H140.077V57.124H142.574V69.897H140.077V64.5336H134.114V69.897H131.641Z" fill="white"/>
<path d="M146.33 58.8059C147.563 57.6045 149.168 57 151.145 57C153.316 57 154.991 57.7053 156.17 59.1159L154.565 60.6273C153.696 59.6429 152.595 59.1469 151.269 59.1469C149.943 59.1469 148.958 59.5499 148.168 60.3482C147.377 61.1543 146.981 62.2084 146.981 63.5105C146.981 64.8126 147.377 65.8512 148.16 66.6495C148.943 67.4478 149.966 67.8431 151.238 67.8431C152.572 67.8431 153.696 67.3625 154.603 66.4015L156.17 67.8973C154.999 69.3079 153.301 70.0132 151.099 70.0132C149.145 70.0132 147.555 69.4087 146.322 68.1996C145.089 66.9905 144.477 65.4249 144.477 63.5182C144.477 61.6116 145.097 60.0227 146.345 58.8059H146.33Z" fill="white"/>
<path d="M156.961 69.897L162.226 57.124H164.7L170.003 69.897H167.406L166.305 66.9905H160.605L159.504 69.897H156.961ZM165.56 65.0529L163.451 59.4802L161.342 65.0529H165.56Z" fill="white"/>
<path d="M176.122 57.124C177.851 57.124 179.185 57.4805 180.107 58.2014C181.03 58.9222 181.495 59.9375 181.495 61.2706C181.495 63.2547 180.487 64.5258 178.463 65.0839L182.038 69.897H179.177L175.982 65.3784H173.997V69.897H171.523V57.124H176.129H176.122ZM176.013 63.3322C177.99 63.3322 178.975 62.6424 178.975 61.2706C178.975 60.5575 178.735 60.0305 178.254 59.6895C177.773 59.3484 177.021 59.1702 176.013 59.1702H173.989V63.3322H176.013Z" fill="white"/>
<path d="M183.828 57.124H192.738V59.1547H186.302V62.5107H192.474V64.4871H186.302V67.8741H193.001V69.9047H183.828V57.1318V57.124Z" fill="white"/>
</svg>
