<svg width="324" height="384" viewBox="0 0 324 384" fill="none" xmlns="http://www.w3.org/2000/svg">
<rect width="323.172" height="384" fill="#F5FCFF"/>
<g opacity="0.15">
<path d="M172.266 77.8173C172.266 77.8173 237.944 99.7758 261.019 16.6121C261.019 16.6121 259.388 133.617 170.367 186.554C170.367 186.554 240.398 130.77 172.266 77.8173Z" fill="#B9B9B9"/>
<path d="M278.379 54.3231C278.379 54.3231 255.859 157.638 170.367 188.105C170.367 188.105 258.363 173.247 297.387 81.1754L278.396 54.3071L278.379 54.3231Z" fill="#B9B9B9"/>
<path d="M308.243 101.583L320.73 131.793C320.73 131.793 269.354 195.605 170.367 189.208C170.367 189.208 256.262 186.17 308.243 101.583Z" fill="#B9B9B9"/>
<path d="M323.174 189.656V157.894C323.174 157.894 269.983 206.705 172.273 190.952C172.273 190.952 243.111 231.238 323.174 189.656Z" fill="#B9B9B9"/>
<path d="M212.027 63.1038C221.021 63.1038 228.312 56.1655 228.312 47.6066C228.312 39.0477 221.021 32.1094 212.027 32.1094C203.033 32.1094 195.742 39.0477 195.742 47.6066C195.742 56.1655 203.033 63.1038 212.027 63.1038Z" fill="#B9B9B9"/>
</g>
</svg>
