<svg width="637" height="428" viewBox="0 0 637 428" fill="none" xmlns="http://www.w3.org/2000/svg">
<path d="M0.466659 185.162C-2.76844 136.026 11.2266 135.526 29.6791 118.82C106.19 86.1016 166.977 -7.23074 282.596 0.446989C448.188 11.4434 426.307 179.599 501.876 234.605C596.963 303.817 631.569 363.974 636.097 427.688C549.743 427.688 0.469108 427.688 0.469108 427.688L0.466659 185.162Z" fill="#9DEEFF"/>
<path d="M529.398 248.161C526.571 248.223 446.68 248.161 446.68 248.161V327.264L505.763 329.555C505.763 329.555 530.172 318.56 528.602 316.27C527.033 313.98 529.398 248.161 529.398 248.161Z" fill="#3B77BE"/>
<path d="M450.918 188.256L135.909 188.315L137.918 189.665C137.918 189.665 134.491 195.72 133.546 203.792C132.6 211.865 133.073 285.193 133.546 287.211C134.019 289.229 217.68 338.338 217.68 338.338L436.097 335.127C440.332 337.154 445.43 338.338 450.918 338.338C465.601 338.338 477.505 329.867 477.505 319.418V207.176C477.505 196.726 465.601 188.256 450.918 188.256Z" fill="#3797DB"/>
<path d="M155.576 318.777H120.286C115.347 318.777 111.344 314.897 111.344 310.109V196.923C111.344 192.136 115.347 188.255 120.286 188.255H155.576C160.515 188.255 164.519 192.136 164.519 196.923V310.109C164.519 314.896 160.515 318.777 155.576 318.777Z" fill="#3B77BE"/>
<path d="M513.005 420.507H255.031V349.711H505.757L513.005 420.507Z" fill="#3B77BE"/>
<path d="M529.389 248.161C543.415 248.561 555.026 259.843 555.842 273.896C556.486 284.986 550.547 294.748 541.582 299.623C538.5 301.299 536.51 304.46 536.51 307.977V410.252C536.51 415.916 531.933 420.507 526.289 420.507H511.518C505.873 420.507 501.297 415.916 501.297 410.252V275.535C501.297 260.145 513.951 247.72 529.389 248.161Z" fill="#3797DB"/>
<path d="M499.055 363.762H253.538C246.372 363.762 240.562 358.131 240.562 351.185V325.492C240.562 318.545 246.372 312.914 253.538 312.914H499.055C506.221 312.914 512.031 318.545 512.031 325.492V351.185C512.031 358.131 506.221 363.762 499.055 363.762Z" fill="#3797DB"/>
<path d="M477.511 312.914C477.511 312.914 476.412 312.934 474.353 312.972C472.292 313.005 469.271 313.077 465.426 313.122C461.581 313.175 456.912 313.239 451.556 313.313C446.2 313.388 440.158 313.473 433.566 313.529C426.975 313.587 419.834 313.649 412.281 313.715C404.728 313.761 396.763 313.809 388.523 313.86C380.283 313.888 371.769 313.948 363.118 313.952C354.466 313.965 345.677 313.977 336.888 313.99C328.099 313.978 387.17 313.965 378.519 313.954C369.867 313.953 361.353 313.889 353.113 313.862C344.873 313.812 336.908 313.763 329.356 313.718C321.803 313.671 314.662 313.601 308.07 313.532C301.478 313.476 295.436 313.392 290.08 313.315C284.724 313.241 280.055 313.176 276.21 313.123C272.365 313.078 269.344 313.006 267.284 312.972C265.224 312.934 264.125 312.914 264.125 312.914C264.125 312.914 265.224 312.894 267.284 312.855C269.344 312.822 272.365 312.75 276.21 312.704C280.055 312.651 284.724 312.587 290.08 312.513C295.436 312.436 301.478 312.352 308.07 312.296C314.661 312.227 321.803 312.156 329.356 312.11C336.908 312.064 344.873 312.016 353.113 311.966C361.353 311.938 369.867 311.874 378.519 311.874C387.17 311.862 328.099 311.85 336.888 311.838C345.677 311.85 354.466 311.863 363.118 311.875C371.769 311.88 380.283 311.94 388.523 311.968C396.763 312.018 404.728 312.067 412.281 312.113C419.834 312.179 426.975 312.241 433.566 312.298C440.158 312.354 446.2 312.44 451.556 312.515C456.912 312.589 461.581 312.653 465.426 312.705C469.271 312.751 472.292 312.823 474.353 312.856C476.412 312.893 477.511 312.914 477.511 312.914Z" fill="#D1EAF2"/>
<path d="M308.252 134.963C308.252 134.963 298.063 140.549 295.001 148.448C292.387 155.192 280.737 154.01 273.452 163.024C265.361 173.034 253.855 188.004 280.243 198.1C296.635 204.371 322.736 209.196 328.654 204.964C334.571 200.733 348.68 202.426 345.506 157.946C345.506 157.946 306.922 142.335 306.534 142.241C306.146 142.147 308.252 134.963 308.252 134.963Z" fill="#282828"/>
<path d="M345.503 152.731C346.216 166.382 334.648 177.595 320.564 176.905C308.505 176.313 298.706 166.816 298.094 155.126C297.379 141.473 308.95 130.258 323.035 130.95C335.094 131.543 344.892 141.041 345.503 152.731Z" fill="#282828"/>
<path d="M409.159 223.448L407.428 224.234C400.05 225.951 357.988 235.664 356.048 234.422C353.92 233.06 344.413 214.039 344.413 214.039L333.617 231.074C333.617 231.074 343.369 248.983 349.715 251.817C355.907 254.582 399.513 239.231 411.797 231.996L413.038 231.462C414.234 231.706 417.37 232.137 417.37 232.137C429.905 233.514 428.615 233.587 428.716 233.114C428.816 232.642 423.753 230.524 424.051 230.066C424.348 229.608 431.719 230.09 431.368 229.489C431.017 228.887 424.225 227.568 424.355 227.146C424.485 226.724 431.596 227.299 431.571 226.289C431.547 225.28 423.749 224.926 424.039 224.132C424.328 223.337 432.318 223.913 432.155 222.99C432.018 222.213 423.087 221.339 420.247 221.08C419.881 221.047 419.68 220.595 419.893 220.29C423.17 215.598 423.155 215.018 422.568 214.731C422.15 214.526 418.03 217.547 414.013 220.133L409.159 223.448Z" fill="#EFAC7F"/>
<path d="M394.147 373.412L391.479 395.114L378.562 390.299L381.033 371.726L394.147 373.412Z" fill="#EFAC7F"/>
<path d="M402.82 412.943L372.835 403.272C371.908 402.974 371.408 402.003 371.716 401.105C372.024 400.207 373.025 399.721 373.952 400.02L403.936 409.69C404.863 409.989 405.364 410.959 405.056 411.858C404.747 412.756 403.746 413.242 402.82 412.943Z" fill="#2D185D"/>
<path d="M377.193 390.091L372.984 398.78C372.465 399.852 372.761 401.072 373.606 401.345L402.986 410.82C403.749 411.066 404.661 410.848 405.36 410.109C406.077 409.352 406.619 408.038 405.922 405.811C404.544 401.405 396.36 397.768 393.117 393.389C393.051 393.3 392.96 393.234 392.852 393.199L379.333 388.839C378.568 388.592 377.662 389.122 377.193 390.091Z" fill="#45258F"/>
<path d="M389.144 397.835C388.975 397.639 389.016 397.268 389.23 397.043C390.232 395.99 393.071 393.554 396.527 395.358C396.727 395.461 396.776 395.781 396.644 396.05L396.639 396.059C396.511 396.32 396.259 396.437 396.065 396.337C392.964 394.733 390.518 396.898 389.695 397.786C389.519 397.976 389.284 397.996 389.144 397.835Z" fill="white"/>
<path d="M391.784 399.983C391.615 399.788 391.657 399.416 391.87 399.191C392.872 398.138 395.711 395.702 399.167 397.506C399.367 397.61 399.417 397.929 399.284 398.198L399.28 398.207C399.152 398.469 398.899 398.585 398.706 398.485C395.605 396.881 393.159 399.046 392.335 399.934C392.16 400.124 391.924 400.144 391.784 399.983Z" fill="white"/>
<path d="M394.245 401.984C394.076 401.789 394.118 401.417 394.331 401.193C395.333 400.14 398.172 397.704 401.628 399.507C401.828 399.611 401.878 399.93 401.745 400.2L401.741 400.209C401.612 400.47 401.36 400.587 401.167 400.487C398.066 398.883 395.62 401.048 394.797 401.936C394.621 402.125 394.385 402.146 394.245 401.984Z" fill="white"/>
<path d="M294.119 279.912C294.119 279.912 288.091 307.407 315.441 313.936C342.791 320.464 377.307 321.128 377.307 321.128L378.79 373.619L393.186 375.217C393.186 375.217 435.299 300.467 384.726 283.469L338.452 280.859L319.49 278.374C319.49 278.374 300.516 272.579 300.232 273.444C299.948 274.309 294.544 280.379 294.119 279.912Z" fill="#2D185D"/>
<path d="M326.3 189.165C326.3 189.165 309.437 185.507 300.689 185.793C291.941 186.079 303.831 208.392 303.831 208.392L318.118 208.7C318.118 208.7 326.831 203.071 328.104 203.145C332.921 203.426 329.164 189.992 329.164 189.992L326.3 189.165Z" fill="#EFAC7F"/>
<path d="M309.354 171.57L304.336 186.332C304.336 186.332 308.704 195.087 322.082 191.31C322.082 191.31 320.556 188.253 322.603 181.957C324.695 175.524 309.354 171.57 309.354 171.57Z" fill="#EFAC7F"/>
<path opacity="0.6" d="M309.363 171.57L307.008 178.466C308.41 183.505 312.963 186.938 321.549 188.004C321.546 186.505 321.786 184.5 322.613 181.957C324.705 175.524 309.363 171.57 309.363 171.57Z" fill="#D19369"/>
<path d="M339.966 160.762C338.88 163.159 339.604 165.785 341.582 166.627C343.561 167.469 346.045 166.208 347.13 163.811C348.216 161.413 347.492 158.788 345.514 157.946C343.535 157.104 341.051 158.365 339.966 160.762Z" fill="#D19369"/>
<path d="M338.85 174.921C339.502 173.891 340.059 172.796 340.511 171.647C341.794 168.56 342.489 165.265 342.858 162.386C342.937 161.768 343.053 161.156 343.18 160.546C343.696 158.082 343.759 155.457 343.233 152.742C341.542 144.008 333.987 137.265 324.865 136.372C312.577 135.169 302.139 144.327 301.818 155.976C300.531 155.239 299.068 155.038 297.761 155.564C295.253 156.574 294.275 159.855 295.576 162.894C296.878 165.933 299.966 167.578 302.473 166.569C302.822 166.429 303.137 166.241 303.425 166.02C304.194 175.959 312.363 183.826 322.416 183.925C327.332 183.972 331.836 182.151 335.271 179.121C335.5 178.945 335.741 178.738 335.995 178.497C337.109 177.438 338.049 176.224 338.85 174.921Z" fill="#EFAC7F"/>
<path d="M334.084 157.079C333.689 158.177 333.482 159.324 333.415 160.492C333.382 161.079 333.397 161.668 333.479 162.272C333.574 162.873 333.718 163.492 334.112 164.09L334.285 164.307L334.441 164.492C334.505 164.58 334.604 164.653 334.647 164.747C334.771 164.921 334.846 165.109 334.875 165.303C334.959 165.695 334.769 166.12 334.476 166.5C333.842 167.265 332.73 167.687 331.57 167.916C332.725 168.136 334.097 167.996 335.12 167.092C335.619 166.655 336.006 165.962 335.948 165.206C335.934 165.019 335.905 164.834 335.835 164.662C335.785 164.48 335.692 164.325 335.599 164.167C335.513 164.003 335.382 163.887 335.271 163.746C335.2 163.668 335.189 163.643 335.153 163.598L335.057 163.476C334.809 163.115 334.657 162.606 334.538 162.094C334.408 161.577 334.37 161.025 334.3 160.475C334.201 159.367 334.156 158.235 334.084 157.079Z" fill="#D19369"/>
<path d="M368.122 378.964L361.473 397.436L351.688 387.951L355.221 379.202L368.122 378.964Z" fill="#EFAC7F"/>
<path d="M327.022 159.431C327.012 160.407 326.188 161.191 325.18 161.181C324.173 161.171 323.365 160.371 323.375 159.395C323.385 158.419 324.21 157.635 325.217 157.645C326.224 157.655 327.032 158.455 327.022 159.431Z" fill="#333333"/>
<path d="M340.546 159.753C340.536 160.73 339.711 161.513 338.704 161.503C337.696 161.493 336.888 160.694 336.899 159.717C336.909 158.741 337.734 157.958 338.74 157.968C339.747 157.977 340.556 158.777 340.546 159.753Z" fill="#333333"/>
<path opacity="0.3" d="M326.75 171.177C326.75 171.177 329.231 170.315 331.566 171.798C331.566 171.798 334.089 170.267 336.078 171.729C336.078 171.729 335.155 175.372 331.009 175.126C326.863 174.881 326.75 171.177 326.75 171.177Z" fill="#D19369"/>
<path d="M324.562 169.872C325.032 170.24 325.52 170.579 326.034 170.876C326.542 171.181 327.067 171.456 327.611 171.687C328.697 172.148 329.842 172.473 331.013 172.569C332.184 172.67 333.366 172.529 334.496 172.195C335.622 171.845 336.687 171.299 337.691 170.649C337.243 171.042 336.762 171.402 336.249 171.72C335.735 172.04 335.179 172.291 334.611 172.516C334.035 172.725 333.436 172.876 332.824 172.961C332.212 173.038 331.591 173.053 330.975 173.008C329.743 172.897 328.544 172.542 327.46 171.991C326.378 171.442 325.376 170.742 324.562 169.872Z" fill="#D19369"/>
<path d="M327.683 154.147C326.745 153.902 325.864 153.721 324.995 153.621C324.128 153.523 323.281 153.531 322.461 153.658C321.646 153.793 320.829 153.993 320.05 154.37C319.634 154.512 319.277 154.766 318.858 154.954C318.456 155.166 318.085 155.432 317.633 155.643C317.847 155.225 318.099 154.815 318.397 154.436C318.728 154.091 319.043 153.703 319.463 153.435C320.242 152.815 321.236 152.44 322.248 152.281C323.265 152.126 324.315 152.233 325.257 152.56C326.193 152.895 327.059 153.411 327.683 154.147Z" fill="#333333"/>
<path d="M336.008 154.148C336.72 153.491 337.644 153.081 338.615 152.86C339.59 152.646 340.646 152.664 341.637 152.938C342.621 153.215 343.561 153.705 344.256 154.411C344.639 154.728 344.903 155.149 345.188 155.531C345.437 155.942 344.506 155.55 344.666 155.99C345.039 156.249 344.244 155.727 344.666 155.99C344.273 155.755 343.951 155.46 343.556 155.27C342.831 154.804 342.044 154.51 341.252 154.279C340.454 154.056 339.615 153.949 338.742 153.944C337.867 153.94 336.97 154.016 336.008 154.148Z" fill="#333333"/>
<path d="M271.825 271.947C268.061 279.436 266.982 290.651 271.285 299.003C274.246 304.75 279.803 310.094 289.994 312.526C317.344 319.055 351.86 319.719 351.86 319.719L343.749 376.928C369.189 380.513 355.252 384.397 371.619 378.964C371.619 378.964 417.135 303.034 371.37 283.507C368.957 282.477 366.386 281.829 363.764 281.556L314.026 274.761L294.043 276.965C294.043 276.965 275.069 271.17 274.785 272.035C274.724 272.219 272.131 271.338 271.825 271.947Z" fill="#45258F"/>
<path d="M336.564 230.798C336.564 230.798 332.85 241.323 332.175 246.911C330.498 260.793 330.267 269.483 333.231 277.384C330.72 278.737 312.248 280.258 295.094 277.825C281.066 275.835 271.828 271.947 271.828 271.947C271.828 271.947 275.752 253.705 274.907 239.126C274.605 233.915 274.565 226.834 274.565 226.834L278.158 220.04L336.564 230.798Z" fill="#9ED16F"/>
<path d="M280.759 200.204C280.759 200.204 285.269 200.584 284.778 208.185C284.288 215.787 280.627 230.258 280.627 230.258C280.627 230.258 245.065 296.506 237.271 302.95C236.849 303.3 236.315 303.494 235.76 303.513L211.797 303.421C211.797 303.421 213.333 301.93 214.985 301.506L226.154 298.634C226.594 298.52 226.967 298.237 227.186 297.85L230.764 291.519L257.735 221.788C260.486 215.575 267.032 212.025 271.53 206.857C274.816 203.081 278.4 199.829 280.759 200.204Z" fill="#EFAC7F"/>
<path d="M329.182 189.993C328.848 196.599 319.305 207.611 319.305 207.611C317.576 203.929 300.916 186.017 300.707 185.793C293.846 185.896 279.283 186.88 270.384 193.006C258.431 201.234 251.273 219.715 251.273 219.715C251.273 219.715 272.928 230.294 278.298 230.798H338.41C338.41 230.798 347.592 230.126 356.426 225.76C356.426 225.761 355.002 198.383 329.182 189.993Z" fill="#9ED16F"/>
<path d="M287.924 208.7C287.305 210.495 286.757 212.311 286.202 214.126C285.644 215.94 285.142 217.769 284.644 219.6C284.167 221.436 283.687 223.272 283.273 225.125C282.862 226.979 282.459 228.837 282.152 230.717L282.61 230.272C282.019 230.331 281.293 230.31 280.624 230.259C279.942 230.215 279.257 230.117 278.575 230.022C277.214 229.787 275.848 229.535 274.506 229.17L273.496 228.911L272.496 228.614C271.831 228.41 271.16 228.225 270.502 227.995L268.519 227.331L266.561 226.597C265.25 226.12 263.971 225.56 262.673 225.045L258.839 223.352L255.041 221.571C253.792 220.944 252.539 220.321 251.273 219.716C252.465 220.446 253.668 221.158 254.875 221.868C256.091 222.559 257.321 223.233 258.556 223.896C259.803 224.538 261.062 225.161 262.327 225.774L264.251 226.639C264.892 226.93 265.533 227.221 266.193 227.472C268.793 228.56 271.474 229.483 274.219 230.214L275.25 230.483L276.294 230.714C276.986 230.881 277.696 230.985 278.401 231.105C279.113 231.199 279.824 231.295 280.547 231.336C281.281 231.382 281.97 231.413 282.781 231.324L283.175 231.281L283.238 230.879C283.822 227.167 284.6 223.467 285.411 219.775L286.649 214.237L287.924 208.7Z" fill="#96A65F"/>
<path d="M333.617 204.449C334.465 206.599 335.235 208.756 335.922 210.931C336.597 213.109 337.194 215.304 337.593 217.528C337.815 218.637 337.957 219.756 338.055 220.876C338.172 221.995 338.184 223.119 338.141 224.24C338.055 226.483 334.626 237.037 333.617 239.126C335.041 237.273 338.775 226.63 339.027 224.308C339.317 221.977 339.118 219.623 338.713 217.334C338.488 216.192 338.226 215.058 337.899 213.943C337.558 212.833 337.196 211.729 336.759 210.653C335.902 208.497 334.888 206.398 333.617 204.449Z" fill="#96A65F"/>
<path d="M359.546 321.427C358.812 321.298 358.078 321.178 357.354 321.012C356.63 320.85 355.914 320.659 355.206 320.453C354.851 320.346 354.494 320.23 354.144 320.105C354.511 320.031 354.867 319.928 355.221 319.805C355.921 319.566 356.574 319.221 357.188 318.829C357.781 318.406 358.343 317.949 358.833 317.426C359.327 316.906 359.749 316.332 360.122 315.736L359.393 316.503C359.132 316.74 358.889 316.992 358.617 317.212C358.097 317.68 357.517 318.074 356.923 318.43C356.323 318.781 355.688 319.065 355.035 319.289C354.385 319.502 353.682 319.657 353.033 319.68L351.844 319.722L352.9 320.198C353.616 320.521 354.33 320.732 355.063 320.932C355.792 321.13 356.534 321.269 357.277 321.392C358.02 321.509 358.765 321.611 359.515 321.664C360.265 321.718 361.014 321.753 361.764 321.75C361.022 321.645 360.281 321.556 359.546 321.427Z" fill="#2D185D"/>
<path d="M301.824 155.977C301.824 155.977 318.471 150.281 329.24 138.432C329.24 138.432 337.224 149.073 342.691 150.594C342.691 150.594 343.184 133.637 325.189 131.309C307.194 128.982 297.837 142.559 301.824 155.977Z" fill="#282828"/>
<path d="M364.368 418.193L341.022 397.55C340.3 396.913 340.249 395.829 340.907 395.129C341.565 394.43 342.684 394.38 343.405 395.018L366.752 415.66C367.473 416.298 367.524 417.382 366.866 418.082C366.208 418.781 365.09 418.831 364.368 418.193Z" fill="#2D185D"/>
<path d="M350.531 387.221L343.043 393.504C342.119 394.278 341.879 395.51 342.537 396.092L365.412 416.318C366.007 416.843 366.932 417.003 367.88 416.604C368.852 416.193 369.899 415.206 370.195 412.898C370.782 408.328 364.828 401.783 363.7 396.506C363.677 396.397 363.621 396.301 363.537 396.227L353.01 386.919C352.415 386.392 351.365 386.521 350.531 387.221Z" fill="#45258F"/>
<path d="M358.203 398.999C358.13 398.755 358.324 398.432 358.613 398.311C359.97 397.743 363.585 396.635 365.987 399.643C366.126 399.817 366.038 400.128 365.804 400.322L365.796 400.329C365.569 400.517 365.29 400.524 365.155 400.357C362.993 397.67 359.851 398.685 358.727 399.173C358.487 399.277 358.263 399.203 358.203 398.999Z" fill="white"/>
<path d="M359.718 402.007C359.646 401.763 359.84 401.439 360.128 401.318C361.485 400.751 365.101 399.642 367.503 402.651C367.642 402.824 367.553 403.136 367.319 403.33L367.312 403.336C367.085 403.524 366.805 403.532 366.671 403.364C364.509 400.677 361.367 401.692 360.242 402.18C360.003 402.284 359.779 402.211 359.718 402.007Z" fill="white"/>
<path d="M361.14 404.806C361.068 404.562 361.261 404.238 361.55 404.118C362.907 403.55 366.522 402.442 368.925 405.45C369.063 405.624 368.975 405.935 368.741 406.129L368.734 406.135C368.507 406.324 368.228 406.331 368.093 406.164C365.931 403.477 362.789 404.492 361.665 404.979C361.424 405.084 361.201 405.01 361.14 404.806Z" fill="white"/>
<path d="M495.68 312.913C497.181 312.845 498.662 312.714 500.189 312.793C501.708 312.899 503.211 313.283 504.624 313.894C506.031 314.52 507.339 315.389 508.473 316.458C509.599 317.536 510.531 318.819 511.242 320.218C511.947 321.619 512.445 323.144 512.623 324.718C512.787 326.325 512.739 327.794 512.773 329.306L512.815 338.337L512.775 347.369C512.741 348.881 512.789 350.351 512.625 351.958C512.447 353.531 511.95 355.057 511.245 356.458C510.534 357.857 509.601 359.14 508.475 360.219C507.342 361.288 506.033 362.156 504.626 362.783C503.212 363.395 501.709 363.778 500.19 363.883C498.663 363.962 497.181 363.83 495.68 363.762C497.172 363.664 498.689 363.652 500.146 363.477C501.608 363.26 503.013 362.778 504.3 362.099C506.896 360.773 508.981 358.546 510.165 355.931C510.753 354.624 511.153 353.23 511.287 351.805C511.399 350.414 511.324 348.866 511.319 347.369L511.279 338.337L511.322 329.306C511.327 327.808 511.401 326.262 511.289 324.869C511.155 323.444 510.756 322.05 510.168 320.743C508.983 318.128 506.898 315.901 504.301 314.574C503.015 313.895 501.608 313.414 500.147 313.198C498.689 313.022 497.172 313.01 495.68 312.913Z" fill="#D1EAF2"/>
<path d="M236.036 248.161H104.972C104.469 248.148 103.963 248.147 103.454 248.161C89.4282 248.561 77.8169 259.844 77.0008 273.899C76.3567 284.99 82.2957 294.753 91.2608 299.628C94.343 301.304 96.3328 304.465 96.3328 307.983V410.269C96.3328 415.933 100.909 420.525 106.554 420.525H113.23H121.324H245.103L236.036 248.161Z" fill="#3B77BE"/>
<path d="M236.04 248.161C222.014 248.561 210.403 259.844 209.587 273.899C208.943 284.989 214.882 294.753 223.847 299.628C226.929 301.304 228.919 304.465 228.919 307.983V410.269C228.919 415.933 233.495 420.525 239.14 420.525H253.91C259.556 420.525 264.132 415.933 264.132 410.269V275.538C264.132 260.146 251.478 247.72 236.04 248.161Z" fill="#3797DB"/>
<path d="M239.141 420.299L250.009 420.119L252.726 420.084C253.637 420.068 254.532 420.085 255.399 419.926C257.15 419.662 258.793 418.875 260.15 417.762C261.482 416.624 262.552 415.157 263.12 413.503C263.436 412.687 263.582 411.819 263.671 410.956C263.722 410.102 263.691 409.177 263.683 408.272L263.549 411.746L263.216 368.189C263.072 353.669 263.099 339.15 263.045 324.632L262.937 281.074L262.948 275.629L262.826 273.023C262.738 272.16 262.574 271.305 262.455 270.445C261.794 267.036 260.442 263.762 258.504 260.876C254.651 255.081 248.402 250.925 241.54 249.7L238.953 249.36C238.083 249.31 237.205 249.309 236.33 249.279L230.905 249.259L220.036 249.232C212.789 249.227 205.543 249.181 198.296 249.118L154.818 248.783C140.326 248.584 125.834 248.467 111.344 248.196C125.834 247.923 140.324 247.807 154.813 247.608L198.278 247.274C205.522 247.21 212.766 247.164 220.01 247.159L230.876 247.132L236.319 247.125C237.255 247.15 238.191 247.148 239.126 247.198L241.929 247.553C249.374 248.845 256.179 253.315 260.399 259.593C262.521 262.72 264.013 266.278 264.752 269.992C264.891 270.928 265.071 271.859 265.171 272.799L265.317 275.63L265.328 281.075L265.22 324.632C265.166 339.151 265.193 353.67 265.049 368.189L264.716 411.746L264.582 408.273C264.567 409.183 264.58 410.074 264.5 411.031C264.382 411.966 264.197 412.9 263.837 413.772C263.18 415.539 261.995 417.079 260.549 418.254C259.077 419.402 257.319 420.186 255.474 420.42C254.552 420.563 253.623 420.522 252.727 420.515L250.01 420.48L239.141 420.299Z" fill="#D1EAF2"/>
<path d="M625.705 427.688H55.6803C54.3425 427.688 53.2578 426.637 53.2578 425.34V422.872C53.2578 421.576 54.3425 420.524 55.6806 420.524H625.705C627.043 420.524 628.128 421.575 628.128 422.872V425.34C628.128 426.637 627.043 427.688 625.705 427.688Z" fill="#62BDF3"/>
<path d="M145.497 233.992C155.011 237.693 145.095 252.452 142.295 256.305C144.137 260.016 145.559 263.621 146.647 267.014C148.33 261.22 146.462 255.921 148.442 252.621C150.662 248.92 154.963 246.669 155.77 254.669C156.409 261.008 149.823 266.383 147.058 268.343C148.84 274.27 149.625 279.48 149.95 283.38C152.698 276.986 151.14 270.535 153.723 267.051C156.549 263.239 161.464 261.368 161.428 270.46C161.397 277.976 152.97 283.122 150.046 284.681C150.272 288.258 150.109 290.468 150.09 290.705C149.778 295.168 149.276 299.457 148.623 303.57C151.149 297.997 150.787 292.117 153.46 289.292C156.667 285.902 161.662 284.814 160.513 293.996C159.604 301.261 151.5 305.076 148.153 306.353C146.621 314.915 144.436 322.665 141.948 329.568C145.631 325.478 148.638 316.896 152.988 314.384C155.842 312.736 157.627 313.882 158.626 315.146C159.48 316.226 159.787 317.752 159.498 319.329C157.865 328.245 145.273 330.41 141.475 330.863C138.331 339.325 134.751 346.46 131.403 352.182C133.322 350.084 136.207 346.902 137.65 345.181C139.925 342.467 144.065 340.001 146.857 340.573C146.973 340.597 147.085 340.625 147.193 340.656C149.264 341.255 150.323 343.687 149.856 346.257C148.03 356.309 133.276 354.781 130.116 354.335C130.092 354.374 130.067 354.415 130.044 354.454C121.332 368.658 113.217 375.896 112.876 376.196L112.086 374.887C112.165 374.817 119.887 367.921 128.164 354.742C121.216 341.982 125.408 332.361 128.922 331.531C132.553 330.674 136.644 334.252 133.436 340.942C131.575 344.823 130.346 349.274 129.641 352.33C133.057 346.608 136.77 339.344 140.021 330.647C125.91 318.995 134.272 308.426 138.624 309.335C143.028 310.254 143.457 314.091 141.677 320.051C140.494 324.011 140.383 327.563 140.442 329.509C142.902 322.746 145.069 315.142 146.603 306.739C143.291 306.919 134.863 306.688 133.423 299.846C131.623 291.297 136.619 290.24 140.023 292.212C143.153 294.024 142.918 301.072 146.822 305.518C147.632 300.85 148.248 295.945 148.607 290.803C148.614 290.72 148.942 286.284 147.937 279.494C144.575 280.158 136.107 281.135 133.906 274.719C131.142 266.661 136.073 264.895 139.731 266.312C142.995 267.577 143.601 274.108 147.688 277.923C146.713 272.204 144.791 265.065 141.083 257.53C137.593 258.19 129.411 259.003 127.254 252.715C124.49 244.658 129.421 242.892 133.079 244.309C136.389 245.591 136.963 252.292 141.208 256.081L141.347 255.973C140.874 253.657 139.856 248.751 139.259 246.45C138.463 243.38 138.942 238.569 141.006 236.028C143.069 233.487 145.497 233.992 145.497 233.992Z" fill="#62BDF3"/>
<path d="M85.5695 238.141L69.9017 217.272C74.2722 198.991 78.8237 184.065 78.8237 184.065C100.941 202.66 114.464 224.14 122.326 245.866L112.567 273.689L126.951 261.114C141.624 320.368 119.155 376.859 119.155 376.859C119.155 376.859 69.5008 298.825 63.1372 277.599C60.6804 269.403 62.4597 253.592 65.5696 237.268C73.8193 238.25 85.5695 238.141 85.5695 238.141Z" fill="#7772D6"/>
<path d="M78.8237 184.065C78.8237 184.065 120.471 309.115 119.155 376.86C119.155 376.86 69.5008 298.826 63.1372 277.6C60.6804 269.404 62.4597 253.593 65.5696 237.268C73.819 238.25 85.5689 238.141 85.5689 238.141L69.9011 217.272C74.2722 198.992 78.8237 184.065 78.8237 184.065Z" fill="#45258F"/>
<path d="M39.4906 257.274C52.0777 261.657 62.5725 268.678 71.3129 277.144C70.8649 283.175 70.4562 290.414 70.4562 290.414L77.1223 283.262C108.15 318.7 113.606 371.961 113.606 371.961C85.9431 362.871 68.3768 348.001 57.2803 331.935C58.7974 328.418 61.1141 323.239 61.1141 323.239L53.8694 326.635C48.9702 318.438 45.6131 310.065 43.3355 302.101C47.1166 300.368 51.3377 298.261 51.3377 298.261L41.4275 294.425C37.011 273.615 39.4906 257.274 39.4906 257.274Z" fill="#7772D6"/>
<path d="M57.2803 331.935C58.7974 328.418 61.1141 323.239 61.1141 323.239L53.8694 326.635C48.9702 318.438 45.6131 310.064 43.3355 302.1C47.1166 300.368 51.3377 298.261 51.3377 298.261L41.4275 294.425C37.011 273.615 39.4906 257.274 39.4906 257.274C77.9758 295.812 113.606 371.961 113.606 371.961C85.9428 362.871 68.3765 348.001 57.2803 331.935Z" fill="#45258F"/>
<path d="M123.427 420.556H98.1898C92.5795 420.556 88.0312 416.147 88.0312 410.709V364.771H133.586V410.709C133.586 416.147 129.038 420.556 123.427 420.556Z" fill="#9ED16F"/>
<path d="M133.722 371.716H87.8815C86.018 371.716 84.5078 369.866 84.5078 367.585C84.5078 365.303 86.018 363.453 87.8815 363.453H133.722C135.585 363.453 137.095 365.303 137.095 367.585C137.095 369.866 135.585 371.716 133.722 371.716Z" fill="#96A65F"/>
<path d="M511.562 398.583L511.281 406.382L523.896 405.784L526.868 396.246L511.562 398.583Z" fill="#FFC0BB"/>
<path d="M591.008 386.798L600.157 400.066L610.035 392.436L606.696 383.013L591.008 386.798Z" fill="#FFC0BB"/>
<path d="M595.342 418.604L618.698 402.203C619.42 401.696 619.581 400.718 619.058 400.019C618.535 399.319 617.526 399.162 616.805 399.67L593.448 416.07C592.727 416.577 592.565 417.555 593.088 418.254C593.611 418.954 594.62 419.111 595.342 418.604Z" fill="#D1EAF2"/>
<path d="M611.166 391.89L617.293 398.332C618.048 399.126 618.137 400.267 617.478 400.73L594.593 416.799C593.999 417.217 593.143 417.27 592.325 416.813C591.487 416.345 590.642 415.345 590.617 413.222C590.568 409.02 596.661 403.675 598.242 399.001C598.274 398.906 598.335 398.824 598.419 398.764L608.95 391.37C609.546 390.952 610.484 391.172 611.166 391.89Z" fill="#45258F"/>
<path d="M602.97 401.81C603.061 401.595 602.92 401.283 602.67 401.144C601.5 400.494 598.339 399.131 595.842 401.62C595.698 401.764 595.745 402.055 595.937 402.255L595.943 402.261C596.129 402.454 596.381 402.489 596.521 402.35C598.766 400.128 601.508 401.361 602.477 401.915C602.683 402.033 602.893 401.988 602.97 401.81Z" fill="white"/>
<path d="M601.258 404.386C601.351 404.171 601.209 403.859 600.96 403.72C599.789 403.071 596.628 401.707 594.131 404.196C593.987 404.34 594.034 404.631 594.225 404.831L594.232 404.837C594.417 405.03 594.67 405.065 594.81 404.926C597.055 402.704 599.797 403.937 600.766 404.491C600.972 404.609 601.183 404.565 601.258 404.386Z" fill="white"/>
<path d="M599.696 406.785C599.788 406.57 599.646 406.257 599.397 406.119C598.227 405.469 595.066 404.105 592.569 406.594C592.425 406.738 592.471 407.03 592.663 407.229L592.669 407.235C592.855 407.428 593.108 407.463 593.248 407.324C595.492 405.103 598.235 406.336 599.203 406.89C599.409 407.008 599.62 406.964 599.696 406.785Z" fill="white"/>
<path d="M569.985 92.8342C570.457 93.0875 570.911 93.3795 571.295 93.7468C572.592 94.9865 572.977 96.9531 574.372 98.0873C575.068 98.6527 575.945 98.9515 576.757 99.3436C577.865 99.8784 578.926 100.667 579.36 101.791C579.606 102.427 579.632 103.119 579.656 103.798C579.699 105.026 579.738 106.282 579.362 107.455C579.142 108.136 578.787 108.774 578.61 109.468C578.258 110.842 578.635 112.3 578.416 113.699C578.25 114.755 577.754 115.731 577.264 116.688C577.007 117.189 576.745 117.698 576.349 118.105C575.336 119.147 573.686 119.301 572.216 119.164C570.746 119.026 569.261 118.668 567.811 118.939C566.597 119.166 565.519 119.816 564.385 120.296C562.648 121.03 560.736 121.371 558.843 121.282C558.312 121.258 557.766 121.195 557.304 120.941C556.824 120.677 556.482 120.235 556.154 119.805C554.346 117.436 552.524 115.043 551.288 112.351C550.052 109.659 549.434 106.605 550.143 103.74C550.674 101.597 551.917 99.67 553.424 98.0208C554.932 96.3713 556.704 94.9728 558.467 93.5824C561.515 91.1803 566.552 90.9923 569.985 92.8342Z" fill="#282828"/>
<path d="M519.929 196.51L523.273 182.569L509.619 172.616C509.619 172.616 507.256 189.236 506.068 195.911L478.482 196.378L473.188 197.349C473.188 197.349 509.975 212.28 512.317 207.699C512.976 206.408 514.95 204.542 516.834 202.355C517.813 202.588 518.436 202.734 518.436 202.734L519.326 199.024C519.823 198.206 520.235 197.365 520.508 196.511L519.929 196.51Z" fill="#EFAC7F"/>
<path d="M531.054 132.572C531.054 132.572 513.421 139.316 506.594 174.671C506.594 174.671 511.006 180.461 520.853 181.102C530.701 181.742 527.703 158.398 527.703 158.398L531.054 132.572Z" fill="#3B77BE"/>
<path d="M551.831 120.965L551.161 131.21L536.756 134.113H534.211L534.743 121.839L550.021 116.609L551.831 120.965Z" fill="#EFAC7F"/>
<path d="M529.235 137.368C528.583 144.251 531.52 145.533 531.52 145.533L553.275 129.884C539.771 131.167 531.04 132.573 531.04 132.573C531.04 132.573 529.919 137.556 529.235 137.368Z" fill="#EFAC7F"/>
<path d="M565.338 98.685C565.338 98.685 569.779 81.0206 559.199 74.4052C548.619 67.7891 537.406 68.5254 529.768 72.489C522.131 76.4531 517.558 90.2731 520.981 98.1697L546.333 90.6293L565.338 98.685Z" fill="#282828"/>
<path d="M476.124 187.278C473.597 186.216 471.752 185.124 471.031 184.039L470.217 181.994C469.208 179.437 467.681 178.316 466.719 178.814L466.556 178.943C466.556 178.943 467.197 183.083 467.72 186.471L465.526 186.151L464.367 199.045L474.823 197.681L476.124 187.278Z" fill="#FFC0BB"/>
<path d="M556.195 218.325L545.734 307.019C545.734 307.019 535.817 382.918 527.808 399.796H510.047L513.912 230.172L545.22 211.097L556.195 218.325Z" fill="#2D185D"/>
<path d="M552.144 118.289C552.144 118.289 551.838 121.263 551.572 124.967C546.093 130.783 535.824 128.788 534.469 128.224C534.551 126.36 534.469 122.59 534.469 122.59L552.144 118.289Z" fill="#D19369"/>
<path d="M564.563 209.747C564.563 209.747 584.414 234.558 579.712 274.053C575.011 313.548 576.055 327.726 576.055 327.726C576.055 327.726 601.651 350.512 609.487 383.424C609.487 383.424 598.256 391.02 590.682 392.285C590.682 392.285 553.071 336.587 550.198 330.005C547.325 323.422 529.453 219.926 529.453 219.926L564.563 209.747Z" fill="#45258F"/>
<path d="M524.267 101.291C525.169 103.667 524.311 106.162 522.349 106.861C520.388 107.561 518.066 106.202 517.163 103.825C516.261 101.448 517.119 98.9537 519.081 98.2542C521.043 97.5543 523.365 98.9138 524.267 101.291Z" fill="#D19369"/>
<path d="M524.479 115.027C523.913 113.995 523.442 112.906 523.075 111.77C522.024 108.716 521.553 105.496 521.372 102.694C521.333 102.092 521.259 101.495 521.173 100.898C520.825 98.4895 520.924 95.9516 521.597 93.3603C523.762 85.0227 531.466 78.9442 540.329 78.6037C552.268 78.1446 561.79 87.5846 561.39 98.8512C562.678 98.2126 564.103 98.1027 565.333 98.6854C567.693 99.8029 568.438 103.028 566.996 105.887C565.555 108.748 562.473 110.16 560.112 109.042C559.785 108.886 559.492 108.687 559.228 108.457C557.88 118.01 549.513 125.14 539.8 124.66C535.05 124.425 530.812 122.409 527.68 119.286C527.469 119.103 527.249 118.89 527.019 118.643C526.007 117.557 525.174 116.331 524.479 115.027Z" fill="#EFAC7F"/>
<path d="M542.667 101.541C542.613 102.556 543.419 103.421 544.466 103.473C545.514 103.525 546.406 102.744 546.459 101.729C546.513 100.713 545.707 99.8479 544.66 99.7966C543.612 99.7447 542.72 100.526 542.667 101.541Z" fill="#333333"/>
<path d="M525.799 101.541C525.746 102.556 526.552 103.421 527.599 103.473C528.647 103.525 529.539 102.744 529.592 101.729C529.646 100.713 528.84 99.8479 527.792 99.7966C526.745 99.7447 525.853 100.526 525.799 101.541Z" fill="#333333"/>
<path d="M541.07 98.4726C541.934 98.0289 542.831 97.6987 543.744 97.4792C544.659 97.2679 545.593 97.1886 546.512 97.2737C546.972 97.3104 547.426 97.4008 547.871 97.5226C548.096 97.5774 548.313 97.6588 548.533 97.7325C548.643 97.7692 548.748 97.8194 548.857 97.8613C548.965 97.9039 549.075 97.9444 549.179 97.9975C550.027 98.3895 550.826 98.9037 551.607 99.4759C551.027 98.711 550.286 98.0505 549.43 97.5451C549.002 97.2918 548.544 97.0787 548.062 96.926C547.582 96.7695 547.082 96.661 546.576 96.6185C545.563 96.5267 544.535 96.6596 543.593 96.9886C543.12 97.1487 542.67 97.3603 542.243 97.6034C541.82 97.8529 541.415 98.1324 541.07 98.4726Z" fill="#282828"/>
<path d="M533.42 98.4726C533.075 98.1324 532.67 97.8532 532.248 97.6034C531.821 97.3603 531.37 97.1487 530.897 96.9886C529.956 96.6596 528.927 96.5267 527.915 96.6185C527.408 96.661 526.908 96.7695 526.428 96.926C525.946 97.0787 525.488 97.2918 525.061 97.5451C524.204 98.0502 523.463 98.711 522.883 99.4759C523.664 98.9037 524.463 98.3895 525.312 97.9975C525.416 97.9444 525.525 97.9039 525.634 97.8613C525.743 97.8191 525.848 97.7692 525.958 97.7325C526.178 97.6588 526.395 97.5777 526.62 97.5226C527.065 97.4008 527.519 97.3104 527.979 97.2737C528.898 97.1886 529.832 97.2679 530.747 97.4792C531.66 97.6987 532.557 98.0289 533.42 98.4726Z" fill="#282828"/>
<path d="M576.789 160.335C576.332 159.873 575.898 159.351 575.501 158.82C575.105 158.284 574.73 157.731 574.404 157.152C574.066 156.578 573.766 155.982 573.506 155.369C573.231 154.759 573.031 154.123 572.824 153.481C572.912 154.145 573.044 154.812 573.26 155.455C573.357 155.78 573.486 156.095 573.609 156.412C573.75 156.721 573.88 157.037 574.042 157.338C574.357 157.943 574.709 158.532 575.115 159.085C575.439 159.534 575.783 159.96 576.169 160.366C575.82 160.434 575.453 160.478 575.093 160.496C574.594 160.519 574.091 160.501 573.595 160.428C573.345 160.4 573.101 160.342 572.854 160.293C572.613 160.223 572.366 160.166 572.131 160.074C571.649 159.917 571.2 159.679 570.75 159.433C571.148 159.748 571.573 160.048 572.049 160.26C572.515 160.49 573.019 160.652 573.534 160.758C574.049 160.864 574.578 160.922 575.106 160.911C575.639 160.904 576.157 160.855 576.693 160.718L577.073 160.621L576.789 160.335Z" fill="white"/>
<path d="M535.647 100.693C535.113 101.529 534.657 102.405 534.244 103.3C533.83 104.196 533.468 105.115 533.185 106.07C533.054 106.551 532.936 107.039 532.9 107.564C532.896 107.697 532.897 107.833 532.915 107.976C532.923 108.047 532.943 108.125 532.959 108.198C532.991 108.278 533.012 108.355 533.071 108.436C533.101 108.477 533.132 108.516 533.165 108.554L533.244 108.62C533.297 108.663 533.348 108.709 533.403 108.748C533.513 108.822 533.622 108.9 533.737 108.962C534.187 109.23 534.663 109.42 535.144 109.585C535.628 109.743 536.117 109.877 536.618 109.96C535.707 109.539 534.788 109.122 534.006 108.573C533.907 108.507 533.821 108.43 533.731 108.357L533.607 108.243L533.547 108.186C533.543 108.174 533.537 108.165 533.53 108.156C533.47 108.06 533.462 107.815 533.486 107.602C533.533 107.155 533.646 106.688 533.782 106.23C534.043 105.307 534.374 104.392 534.692 103.471C535.018 102.552 535.348 101.631 535.647 100.693Z" fill="#D19369"/>
<path d="M573.356 189.553C573.356 189.551 573.355 189.551 573.355 189.549C575.942 175.593 577.056 160.614 577.056 160.614C577.203 157.161 577.158 154.105 576.973 151.401C573.365 148.556 568.334 144.52 568.334 144.52L559.732 130.313C559.732 130.313 559.735 130.307 559.737 130.302C556.469 130.007 553.001 129.873 553.001 129.873L531.529 145.534L531.049 132.573C530.941 132.651 530.834 132.729 530.73 132.812C521.452 140.156 515.43 150.775 514.132 162.448C513.216 170.686 513.327 179.465 513.839 187.31L513.839 187.31C513.839 187.31 510.168 232.734 508.406 239.992C508.406 239.992 557.075 244.687 583.062 239.992C583.061 239.992 573.119 209.344 573.356 189.553Z" fill="#3797DB"/>
<path d="M510.941 225.456L473.712 227.633C471.361 227.77 468.753 226.309 467.888 224.368L448.304 180.44C447.439 178.5 448.644 176.816 450.995 176.679L488.224 174.503C490.575 174.366 493.182 175.827 494.047 177.767L513.632 221.695C514.497 223.635 513.292 225.319 510.941 225.456Z" fill="#9ED16F"/>
<path d="M477.201 177.356L464.528 178.096C463.512 178.156 462.385 177.524 462.011 176.686L461.66 175.899C461.286 175.06 461.807 174.333 462.823 174.273L475.496 173.532C476.513 173.473 477.639 174.104 478.013 174.943L478.364 175.73C478.738 176.569 478.217 177.296 477.201 177.356Z" fill="#C8EEF1"/>
<path d="M463.339 214.233L463.18 214.301C462.242 214.701 461.143 214.352 460.631 213.491L454.797 203.671C454.503 203.198 454.517 202.604 454.834 202.145C455.821 200.716 457.949 197.777 458.676 197.885C459.635 198.027 456.709 202.91 457.108 203.009C457.507 203.108 461.645 199.855 461.996 200.386C462.31 200.861 458.668 204.644 458.835 204.938C459.002 205.233 463.209 202.864 463.664 203.289C464.075 203.672 460.11 206.73 460.165 206.944L463.339 214.233Z" fill="#D1EAF2"/>
<path d="M496.805 225.569C496.844 224.885 502.757 220.565 502.421 220.262C502.085 219.958 495.492 223.784 495.013 222.902C494.533 222.018 501.899 218.062 501.224 217.511C500.547 216.961 493.105 221.2 492.803 220.326C492.548 219.591 500.752 214.654 503.37 213.1C503.708 212.9 503.677 212.415 503.319 212.252C497.81 209.735 497.535 209.227 497.959 208.704C498.261 208.332 503.753 209.011 508.929 209.362L515.213 209.946C516.979 209.543 569.746 197.46 572.623 194.105C575.549 190.693 567.698 172.246 567.698 172.246L584.837 165.115C584.837 165.115 592.682 195.373 585.126 204.697C581.053 209.723 515.52 218.689 515.52 218.689C514.485 219.46 511.666 221.301 511.666 221.301C500.226 228.359 501.511 227.819 501.178 227.459C500.845 227.098 504.687 222.898 504.171 222.642C503.654 222.385 496.765 226.253 496.805 225.569Z" fill="#EFAC7F"/>
<path d="M559.727 130.312C559.727 130.312 578.921 137.358 591.076 164.753C591.076 164.753 585.111 177.538 565.354 177.975L559.727 130.312Z" fill="#3797DB"/>
<path d="M591.077 164.752C589.777 166.869 588.063 168.702 586.137 170.257C584.232 171.837 582.098 173.135 579.847 174.178C577.554 175.132 575.211 175.979 572.761 176.467C571.553 176.773 570.298 176.867 569.07 177.079C567.828 177.2 566.576 177.256 565.33 177.349L565.983 177.829C565.354 175.403 564.639 173.022 563.879 170.644C563.103 168.273 562.305 165.905 561.341 163.596C560.399 161.279 559.337 159.003 558.135 156.798C556.885 154.634 555.513 152.447 553.539 150.834C555.298 152.646 556.517 154.839 557.566 157.077C558.64 159.308 559.585 161.598 560.404 163.933C561.212 166.273 562.04 168.605 562.75 170.976C563.468 173.342 564.135 175.733 564.726 178.12L564.857 178.646L565.379 178.601C566.661 178.488 567.946 178.41 569.224 178.266C570.49 178.03 571.778 177.911 573.023 177.578C574.274 177.274 575.525 176.972 576.731 176.515C577.968 176.151 579.117 175.56 580.285 175.038C582.558 173.853 584.696 172.426 586.559 170.709C588.383 168.968 590.03 167.008 591.077 164.752Z" fill="#3B77BE"/>
<path d="M459.883 207.058C459.883 207.058 464.095 205.817 464.466 206.277C464.838 206.738 459.862 209.339 459.883 209.219C459.904 209.099 459.883 207.058 459.883 207.058Z" fill="#D1EAF2"/>
<path d="M563.962 96.2497L563.486 96.1952L563.166 92.3625L561.398 88.818C561.398 88.818 554.472 79.2878 554.228 79.0519C553.985 78.8155 548.703 75.7442 548.378 75.5865C548.053 75.4288 540.659 76.6102 540.659 76.6102C540.659 76.6102 527.652 73.8971 529.852 80.9422C532.053 87.9876 541.553 91.6539 542.04 91.3385C540.497 89.7639 540.334 85.2742 540.334 85.2742C547.647 93.4651 561.398 98.8511 561.398 98.8511C561.398 98.8511 562.839 97.7855 565.34 98.6853L563.962 96.2497Z" fill="#282828"/>
<path d="M531.43 112.86C531.935 115.036 534.11 116.65 536.687 116.607C539.264 116.564 541.377 114.878 541.801 112.688L531.43 112.86Z" fill="white"/>
<path d="M496.197 418.697L525.037 418.616C525.928 418.613 526.649 417.911 526.646 417.047C526.643 416.183 525.919 415.485 525.028 415.487L496.187 415.568C495.296 415.571 494.576 416.273 494.578 417.137C494.581 418.001 495.306 418.699 496.197 418.697Z" fill="#D1EAF2"/>
<path d="M525.146 405.983L526.234 414.681C526.369 415.753 525.752 416.729 524.939 416.731L496.68 416.811C495.946 416.813 495.219 416.371 494.831 415.537C494.433 414.682 494.351 413.393 495.61 411.656C498.103 408.218 506.269 407.331 510.37 404.434C510.453 404.375 510.552 404.342 510.656 404.342L523.66 404.306C524.395 404.304 525.024 405.014 525.146 405.983Z" fill="#45258F"/>
<path d="M512.505 409.389C512.709 409.266 512.782 408.933 512.663 408.68C512.105 407.489 510.362 404.593 506.835 405.198C506.631 405.234 506.494 405.496 506.529 405.767L506.531 405.775C506.565 406.037 506.749 406.208 506.946 406.175C510.107 405.643 511.589 408.197 512.041 409.195C512.138 409.407 512.335 409.491 512.505 409.389Z" fill="white"/>
<path d="M509.575 410.516C509.779 410.394 509.852 410.061 509.734 409.807C509.175 408.617 507.432 405.719 503.905 406.326C503.701 406.361 503.564 406.623 503.599 406.894L503.6 406.903C503.635 407.164 503.819 407.336 504.016 407.303C507.177 406.771 508.659 409.324 509.111 410.322C509.208 410.535 509.405 410.619 509.575 410.516Z" fill="white"/>
<path d="M506.84 411.57C507.044 411.447 507.118 411.113 506.999 410.86C506.441 409.67 504.697 406.773 501.17 407.379C500.967 407.413 500.829 407.676 500.865 407.947L500.866 407.955C500.9 408.218 501.085 408.388 501.282 408.355C504.442 407.824 505.925 410.377 506.377 411.375C506.473 411.588 506.671 411.671 506.84 411.57Z" fill="white"/>
<path d="M561.389 98.8508C549.475 107.045 530.368 107.045 521.563 103.997C521.489 112.497 525.651 120.802 532.786 123.484C539.921 126.165 549.497 126.234 555.662 117.126C551.833 114.847 552.144 106.99 561.389 98.8508Z" fill="#D1EAF2"/>
<path d="M496.805 225.569C496.844 224.885 502.757 220.565 502.421 220.261C502.085 219.957 495.492 223.784 495.013 222.901C494.533 222.018 501.899 218.061 501.224 217.511C500.547 216.96 493.105 221.199 492.803 220.326C492.548 219.591 500.752 214.653 503.37 213.1C503.708 212.899 503.677 212.415 503.319 212.252C497.81 209.734 497.535 209.227 497.959 208.704C498.261 208.331 503.753 209.01 508.929 209.362L515.213 209.946C515.919 209.785 525.798 206.661 533.989 204.48C535.684 205.302 537.558 214.989 537.201 216.676C531.401 218.406 515.52 218.689 515.52 218.689C514.485 219.46 511.666 221.301 511.666 221.301C500.226 228.359 501.511 227.819 501.178 227.458C500.845 227.098 504.687 222.897 504.171 222.641C503.654 222.385 496.765 226.253 496.805 225.569Z" fill="#D1EAF2"/>
</svg>
